<svg width="24" height="27" viewBox="0 0 24 27" fill="none" xmlns="http://www.w3.org/2000/svg">
<g clip-path="url(#clip0_312_1369)">
<path d="M22.555 16.6619L20.655 9.82593C20.0981 7.82327 18.8877 6.06422 17.2163 4.8284C15.5449 3.59259 13.5084 2.95092 11.4304 3.0054C9.3525 3.05988 7.35239 3.80738 5.74805 5.12908C4.1437 6.45078 3.02719 8.27084 2.57598 10.2999L1.10498 16.9149C0.942497 17.6459 0.946254 18.404 1.11597 19.1333C1.2857 19.8625 1.61705 20.5444 2.08556 21.1285C2.55408 21.7126 3.1478 22.184 3.82289 22.5079C4.49798 22.8318 5.23721 23 5.98598 22.9999H7.09998C7.3295 24.1302 7.94271 25.1464 8.83572 25.8763C9.72874 26.6062 10.8466 27.0049 12 27.0049C13.1533 27.0049 14.2712 26.6062 15.1642 25.8763C16.0573 25.1464 16.6705 24.1302 16.9 22.9999H17.738C18.5088 23 19.2692 22.8218 19.9597 22.4794C20.6503 22.1369 21.2523 21.6394 21.7188 21.0258C22.1853 20.4122 22.5036 19.699 22.6488 18.942C22.794 18.185 22.7622 17.4046 22.556 16.6619H22.555ZM12 24.9999C11.3817 24.9974 10.7794 24.8039 10.2753 24.4458C9.77121 24.0878 9.39007 23.5828 9.18398 22.9999H14.816C14.6099 23.5828 14.2288 24.0878 13.7247 24.4458C13.2206 24.8039 12.6182 24.9974 12 24.9999ZM20.126 19.8149C19.8473 20.1846 19.4863 20.4842 19.0716 20.6899C18.6569 20.8956 18.1999 21.0018 17.737 20.9999H5.98598C5.53677 20.9999 5.0933 20.8989 4.68832 20.7045C4.28334 20.5101 3.92719 20.2273 3.64614 19.8768C3.3651 19.5264 3.16634 19.1173 3.06454 18.6798C2.96274 18.2423 2.9605 17.7874 3.05798 17.3489L4.52798 10.7329C4.88233 9.13914 5.75929 7.70954 7.01944 6.67138C8.27959 5.63323 9.85061 5.04611 11.4828 5.00335C13.1149 4.96059 14.7145 5.46465 16.0273 6.4354C17.3401 7.40616 18.2907 8.78788 18.728 10.3609L20.628 17.1969C20.7535 17.6423 20.7735 18.1108 20.6864 18.5653C20.5992 19.0197 20.4074 19.4476 20.126 19.8149Z" fill="#374957"/>
</g>
<circle cx="5" cy="5" r="5" transform="matrix(-1 0 0 1 23 1)" fill="#FF4747" stroke="#F1FDFF" stroke-width="2"/>
<defs>
<clipPath id="clip0_312_1369">
<rect width="24" height="24" fill="white" transform="translate(0 3)"/>
</clipPath>
</defs>
</svg>
